<svg xmlns="http://www.w3.org/2000/svg" viewBox="0 0 1280 540" width="1280" height="540">
  <defs>
    <linearGradient id="bg" x1="0%" y1="0%" x2="100%" y2="100%">
      <stop offset="0%" style="stop-color:#0d1117"/>
      <stop offset="100%" style="stop-color:#161b22"/>
    </linearGradient>
    <linearGradient id="accent" x1="0%" y1="0%" x2="100%" y2="0%">
      <stop offset="0%" style="stop-color:#7c3aed"/>
      <stop offset="100%" style="stop-color:#a78bfa"/>
    </linearGradient>
    <linearGradient id="nodeGlow" x1="0%" y1="0%" x2="100%" y2="100%">
      <stop offset="0%" style="stop-color:#7c3aed;stop-opacity:0.3"/>
      <stop offset="100%" style="stop-color:#7c3aed;stop-opacity:0"/>
    </linearGradient>
  </defs>

  <!-- Background -->
  <rect width="1280" height="540" fill="url(#bg)"/>

  <!-- Subtle grid pattern -->
  <pattern id="grid" width="40" height="40" patternUnits="userSpaceOnUse">
    <path d="M 40 0 L 0 0 0 40" fill="none" stroke="#21262d" stroke-width="0.5"/>
  </pattern>
  <rect width="1280" height="540" fill="url(#grid)" opacity="0.5"/>

  <!-- Decorative graph nodes - left side -->
  <circle cx="180" cy="200" r="6" fill="#7c3aed" opacity="0.6"/>
  <circle cx="240" cy="160" r="4" fill="#a78bfa" opacity="0.4"/>
  <circle cx="140" cy="260" r="5" fill="#a78bfa" opacity="0.3"/>
  <circle cx="260" cy="240" r="3" fill="#7c3aed" opacity="0.5"/>
  <circle cx="120" cy="180" r="4" fill="#a78bfa" opacity="0.25"/>
  <line x1="180" y1="200" x2="240" y2="160" stroke="#7c3aed" stroke-width="1" opacity="0.3"/>
  <line x1="180" y1="200" x2="140" y2="260" stroke="#7c3aed" stroke-width="1" opacity="0.25"/>
  <line x1="180" y1="200" x2="260" y2="240" stroke="#a78bfa" stroke-width="1" opacity="0.2"/>
  <line x1="240" y1="160" x2="260" y2="240" stroke="#a78bfa" stroke-width="0.5" opacity="0.2"/>
  <line x1="120" y1="180" x2="180" y2="200" stroke="#7c3aed" stroke-width="0.5" opacity="0.2"/>

  <!-- Decorative graph nodes - right side -->
  <circle cx="1080" cy="180" r="5" fill="#7c3aed" opacity="0.5"/>
  <circle cx="1140" cy="220" r="4" fill="#a78bfa" opacity="0.35"/>
  <circle cx="1040" cy="240" r="6" fill="#a78bfa" opacity="0.3"/>
  <circle cx="1120" cy="140" r="3" fill="#7c3aed" opacity="0.4"/>
  <circle cx="1160" cy="280" r="4" fill="#a78bfa" opacity="0.2"/>
  <line x1="1080" y1="180" x2="1140" y2="220" stroke="#7c3aed" stroke-width="1" opacity="0.25"/>
  <line x1="1080" y1="180" x2="1040" y2="240" stroke="#a78bfa" stroke-width="1" opacity="0.2"/>
  <line x1="1080" y1="180" x2="1120" y2="140" stroke="#7c3aed" stroke-width="0.5" opacity="0.3"/>
  <line x1="1140" y1="220" x2="1160" y2="280" stroke="#a78bfa" stroke-width="0.5" opacity="0.2"/>

  <!-- Central vault icon -->
  <g transform="translate(640, 100)" opacity="0.9">
    <polygon points="0,-45 40,-15 40,20 0,50 -40,20 -40,-15" fill="none" stroke="url(#accent)" stroke-width="2"/>
    <line x1="0" y1="-45" x2="0" y2="2.5" stroke="#7c3aed" stroke-width="1" opacity="0.4"/>
    <line x1="40" y1="-15" x2="0" y2="2.5" stroke="#7c3aed" stroke-width="1" opacity="0.4"/>
    <line x1="40" y1="20" x2="0" y2="2.5" stroke="#7c3aed" stroke-width="1" opacity="0.35"/>
    <line x1="0" y1="50" x2="0" y2="2.5" stroke="#7c3aed" stroke-width="1" opacity="0.4"/>
    <line x1="-40" y1="20" x2="0" y2="2.5" stroke="#7c3aed" stroke-width="1" opacity="0.35"/>
    <line x1="-40" y1="-15" x2="0" y2="2.5" stroke="#7c3aed" stroke-width="1" opacity="0.4"/>
    <circle cx="0" cy="2.5" r="3" fill="#a78bfa" opacity="0.55"/>
  </g>

  <!-- Title -->
  <text x="640" y="245" text-anchor="middle" font-family="-apple-system, BlinkMacSystemFont, 'Segoe UI', Helvetica, Arial, sans-serif" font-size="64" font-weight="700" fill="#e6edf3" letter-spacing="-1">
    Vault PKM
  </text>

  <!-- Tagline -->
  <text x="640" y="295" text-anchor="middle" font-family="-apple-system, BlinkMacSystemFont, 'Segoe UI', Helvetica, Arial, sans-serif" font-size="22" fill="#8b949e" letter-spacing="0.5">
    Claude Code Plugin for AI-Native Knowledge Management
  </text>

  <!-- GitHub URL -->
  <text x="640" y="355" text-anchor="middle" font-family="-apple-system, BlinkMacSystemFont, 'Segoe UI', Helvetica, Arial, sans-serif" font-size="20" fill="#e6edf3">
    github.com/AdrianV101/obsidian-pkm-plugin
  </text>

  <!-- Install commands -->
  <text x="640" y="395" text-anchor="middle" font-family="'SFMono-Regular', Consolas, 'Liberation Mono', Menlo, monospace" font-size="16" fill="#8b949e">
    claude plugin marketplace add anthropics/claude-plugins-community
  </text>
  <text x="640" y="425" text-anchor="middle" font-family="'SFMono-Regular', Consolas, 'Liberation Mono', Menlo, monospace" font-size="16" fill="#8b949e">
    claude plugin install vault-pkm@claude-community
  </text>

  <!-- Feature chips -->
  <g transform="translate(640, 490)">
    <rect x="-490" y="-18" width="185" height="36" rx="18" fill="#21262d" stroke="#30363d" stroke-width="1"/>
    <rect x="-280" y="-18" width="120" height="36" rx="18" fill="#21262d" stroke="#30363d" stroke-width="1"/>
    <rect x="-135" y="-18" width="175" height="36" rx="18" fill="#21262d" stroke="#30363d" stroke-width="1"/>
    <rect x="65" y="-18" width="175" height="36" rx="18" fill="#21262d" stroke="#30363d" stroke-width="1"/>
    <rect x="265" y="-18" width="225" height="36" rx="18" fill="#21262d" stroke="#30363d" stroke-width="1"/>

    <text x="-397" y="6" text-anchor="middle" font-family="-apple-system, BlinkMacSystemFont, 'Segoe UI', Helvetica, Arial, sans-serif" font-size="14" fill="#a78bfa" font-weight="500">20 MCP Tools</text>
    <text x="-220" y="6" text-anchor="middle" font-family="-apple-system, BlinkMacSystemFont, 'Segoe UI', Helvetica, Arial, sans-serif" font-size="14" fill="#a78bfa" font-weight="500">3 Agents</text>
    <text x="-47" y="6" text-anchor="middle" font-family="-apple-system, BlinkMacSystemFont, 'Segoe UI', Helvetica, Arial, sans-serif" font-size="14" fill="#a78bfa" font-weight="500">Semantic Search</text>
    <text x="152" y="6" text-anchor="middle" font-family="-apple-system, BlinkMacSystemFont, 'Segoe UI', Helvetica, Arial, sans-serif" font-size="14" fill="#a78bfa" font-weight="500">Graph Traversal</text>
    <text x="377" y="6" text-anchor="middle" font-family="-apple-system, BlinkMacSystemFont, 'Segoe UI', Helvetica, Arial, sans-serif" font-size="14" fill="#a78bfa" font-weight="500">Cross-Session Memory</text>
  </g>
</svg>
